<svg width="149" height="41" viewBox="0 0 149 41" fill="none" xmlns="http://www.w3.org/2000/svg">
<path d="M19.8324 0.983207L0.902893 20.003L20.1945 39.198L39.1239 20.1783L19.8324 0.983207Z" fill="#0C3455"/>
<path fill-rule="evenodd" clip-rule="evenodd" d="M38.6253 20.1793C33.9275 24.8679 29.237 29.5638 24.5448 34.258L19.9436 29.6574L29.4024 20.2049L24.6781 15.4812L15.127 25.026L10.3565 20.2562L19.9025 10.7114L15.1988 6.00309L19.8256 1.37685C26.989 8.54258 31.8905 13.4454 38.6253 20.1793ZM0 19.8151L20.1847 40.0023L40 20.1844L19.8153 0.00231934L0 19.8151Z" fill="white"/>
<path fill-rule="evenodd" clip-rule="evenodd" d="M53.2433 31.1294C52.43 31.0528 50.8885 30.7437 49.9936 30.478C49.5615 30.3497 49.5528 30.3404 49.6059 30.0632C49.6712 29.7217 50.0427 28.5937 50.113 28.5234C50.1405 28.4959 50.5491 28.581 51.0209 28.7125C52.2944 29.0673 53.1484 29.2019 54.5197 29.2638C58.6791 29.4514 61.1036 27.8246 61.0937 24.8527C61.0896 23.5973 60.8168 22.9478 59.9677 22.1718C59.3783 21.6332 57.8986 20.88 56.2363 20.2725C53.2537 19.1825 52.2741 18.6625 51.3813 17.6953C50.791 17.0558 50.4732 16.4443 50.2956 15.6058C49.7409 12.987 51.0132 10.6474 53.5426 9.63477C53.8549 9.50976 54.5194 9.32085 55.0193 9.21499C56.6621 8.86707 59.5734 8.96916 61.6813 9.4486C62.0272 9.52726 62.3098 9.63796 62.3094 9.6946C62.3078 9.92836 61.972 11.1832 61.8887 11.2665C61.8273 11.328 61.551 11.2992 61.0201 11.1762C59.7916 10.8915 58.8408 10.786 57.5127 10.787C54.9438 10.7888 53.5041 11.4377 52.8207 12.9018C52.4942 13.6013 52.4364 14.8217 52.7014 15.4207C53.2379 16.6335 54.0909 17.1936 57.2046 18.3778C60.7573 19.729 62.2512 20.7317 63.0085 22.2734C63.784 23.8523 63.6915 26.1347 62.7856 27.771C61.3885 30.2946 57.7968 31.5587 53.2433 31.1294ZM96.9751 31.0976C93.9574 30.6861 91.9635 29.2853 91.0176 26.9124C90.3058 25.1268 90.1963 22.4444 90.7572 20.5369C91.8657 16.7675 95.0508 14.8967 99.6777 15.2975C100.733 15.3889 102.323 15.6707 102.439 15.787C102.506 15.8537 102.215 17.2428 102.113 17.345C102.063 17.3944 101.692 17.3505 101.163 17.2324C99.9753 16.9678 97.8354 16.8981 96.9048 17.0937C94.8761 17.5202 93.4221 18.9459 92.8403 21.079C92.5813 22.0284 92.5579 24.2554 92.7963 25.2716C93.4307 27.9764 95.5342 29.4582 98.7534 29.4681C99.6568 29.4708 101.001 29.2952 101.695 29.0836C101.934 29.011 102.161 28.9716 102.2 28.9961C102.259 29.0323 102.483 29.7112 102.681 30.4506C102.73 30.6328 101.704 30.9019 100.218 31.0967C98.9986 31.2566 98.1427 31.2568 96.9751 31.0977V31.0976ZM128.154 31.0997C125.5 30.7372 123.987 29.6874 123.526 27.8873C123.322 27.0907 123.388 25.4841 123.652 24.8062C124.081 23.7072 125.148 22.6744 126.393 22.1541C127.572 21.6616 128.502 21.5152 130.399 21.5242C131.319 21.5286 132.369 21.5703 132.732 21.6168C133.095 21.6633 133.412 21.6908 133.436 21.6779C133.46 21.6649 133.457 21.1652 133.428 20.5674C133.365 19.2727 133.162 18.645 132.61 18.044C132.202 17.5993 131.448 17.2048 130.713 17.0511C129.935 16.8885 127.538 17.008 126.306 17.2708C125.403 17.4634 125.282 17.4721 125.189 17.3516C125.061 17.1875 124.897 16.4562 124.897 16.0527V15.7585L125.888 15.5733C128.846 15.0202 131.605 15.1705 133.258 15.975C133.898 16.2864 134.75 17.145 135.049 17.7808C135.532 18.8071 135.549 19.0472 135.549 25.0599V30.5837L134.271 30.7802C131.459 31.2131 129.668 31.3066 128.154 31.0997H128.154ZM132.6 29.2934C132.987 29.2344 133.333 29.1603 133.368 29.1287C133.403 29.0972 133.435 27.8047 133.439 26.2566L133.446 23.4418L133.067 23.365C132.858 23.3228 131.836 23.2832 130.795 23.277C129.223 23.2676 128.806 23.2924 128.331 23.4235C126.962 23.8008 126.201 24.3299 125.772 25.2012C125.505 25.7439 125.494 25.8041 125.528 26.6405C125.559 27.4238 125.59 27.5573 125.826 27.9394C126.298 28.7017 127.162 29.1937 128.35 29.3765C129.055 29.4848 131.681 29.4335 132.6 29.2934H132.6ZM144.351 31.0893C142.919 30.8105 141.901 30.0133 141.515 28.8689C141.321 28.291 141.318 28.2101 141.29 22.7596L141.262 17.2359H139.855H138.447L138.472 16.4216L138.498 15.6074L139.884 15.5831L141.271 15.5589L141.278 14.1307L141.286 12.7025L142.28 11.8002C142.826 11.3039 143.298 10.8979 143.328 10.8979C143.359 10.8979 143.383 11.9476 143.383 13.2306V15.5633H145.628H147.873V16.3996V17.2359H145.624H143.376L143.401 22.6275C143.427 27.9544 143.429 28.0234 143.617 28.3713C143.984 29.0534 144.446 29.3257 145.408 29.4256C145.729 29.459 146.308 29.4396 146.728 29.3815C147.907 29.2183 147.807 29.1892 147.93 29.7337C147.99 29.9989 148.051 30.3555 148.065 30.526C148.092 30.8301 148.084 30.8383 147.652 30.9513C147.21 31.0671 144.763 31.1694 144.351 31.0893L144.351 31.0893ZM84.8915 30.8976C84.5378 30.8824 84.2493 30.8264 84.2107 30.7656C84.1738 30.7075 84.143 30.1564 84.1422 29.5408C84.141 28.4972 84.1532 28.4149 84.3237 28.3237C84.5321 28.2121 86.8114 28.239 86.9264 28.3544C87.0279 28.4562 87.0142 30.684 86.9115 30.7798C86.8105 30.874 85.7621 30.9352 84.8916 30.8976H84.8915ZM65.3205 30.726C65.26 30.6048 66.6341 28.5168 71.7795 20.9117L78.3154 11.2513L72.7115 11.2287L67.1076 11.206V10.2817V9.35744L74.4703 9.33493C81.092 9.31469 81.8383 9.32633 81.886 9.45059C81.9209 9.54164 79.7031 12.876 75.3816 19.2295C71.775 24.5318 68.8241 28.8867 68.8241 28.9068C68.8241 28.927 71.5333 28.9435 74.8446 28.9435C80.2532 28.9435 80.8705 28.9576 80.9185 29.0827C80.9879 29.2636 80.9879 30.56 80.9185 30.7408C80.8703 30.8664 80.1022 30.8801 73.1312 30.8801C65.8535 30.8801 65.3927 30.871 65.3205 30.726V30.726ZM106.412 19.8905V8.89529L106.687 8.84028C107.037 8.77031 107.767 8.77115 108.196 8.84203L108.527 8.89683L108.504 13.5505C108.491 16.1101 108.507 18.2042 108.539 18.2042C108.572 18.2042 108.682 18.0681 108.785 17.9018C109.151 17.3103 110.342 16.2913 111.105 15.9173C112.154 15.4033 112.778 15.265 114.026 15.2697C116.863 15.2803 118.488 16.4429 119.197 18.97C119.385 19.638 119.391 19.8088 119.419 25.2712L119.448 30.8858L118.41 30.8609L117.371 30.8361L117.322 25.4664C117.269 19.7487 117.276 19.8332 116.82 18.8045C116.195 17.3909 114.501 16.7505 112.54 17.1868C110.933 17.5443 109.657 18.6264 109.046 20.1501C108.573 21.3289 108.584 21.1991 108.53 26.1707L108.48 30.8361L107.446 30.8609L106.412 30.8857L106.412 19.8905Z" fill="white"/>
</svg>
